<?xml version="1.0" encoding="utf-8"?>
<!-- Generator: Adobe Illustrator 16.0.0, SVG Export Plug-In . SVG Version: 6.00 Build 0)  -->
<!DOCTYPE svg PUBLIC "-//W3C//DTD SVG 1.1//EN" "http://www.w3.org/Graphics/SVG/1.1/DTD/svg11.dtd">
<svg version="1.1" id="Layer_1" xmlns="http://www.w3.org/2000/svg" xmlns:xlink="http://www.w3.org/1999/xlink" x="0px" y="0px"
	 width="64px" height="64px" viewBox="0 0 64 64" enable-background="new 0 0 64 64" xml:space="preserve">
<polygon fill="#FFFFFF" stroke="#4F4F4F" stroke-width="2" stroke-linecap="round" stroke-linejoin="round" stroke-miterlimit="10" points="
	37.486,13.56 41.568,15.707 42.642,20.608 32.629,15.339 "/>
<line fill="none" stroke="#4F4F4F" stroke-width="2" stroke-miterlimit="10" x1="44.225" y1="46.121" x2="47.101" y2="50.084"/>
<line fill="none" stroke="#4F4F4F" stroke-width="2" stroke-miterlimit="10" x1="21.716" y1="46.121" x2="18.84" y2="50.084"/>
<polygon fill="#FFFFFF" stroke="#4F4F4F" stroke-width="2" stroke-linecap="round" stroke-linejoin="round" stroke-miterlimit="10" points="
	13,34 53,34 47.112,46 19.154,46 "/>
<line fill="none" stroke="#4F4F4F" stroke-linecap="round" stroke-linejoin="round" stroke-miterlimit="10" x1="32.41" y1="17.713" x2="31.696" y2="18.427"/>
<line fill="none" stroke="#4F4F4F" stroke-linecap="round" stroke-linejoin="round" stroke-miterlimit="10" x1="40.573" y1="22.008" x2="39.859" y2="22.723"/>
<line fill="none" stroke="#4F4F4F" stroke-linecap="round" stroke-linejoin="round" stroke-miterlimit="10" x1="34.451" y1="18.787" x2="33.736" y2="19.501"/>
<line fill="none" stroke="#4F4F4F" stroke-linecap="round" stroke-linejoin="round" stroke-miterlimit="10" x1="36.492" y1="19.861" x2="35.777" y2="20.575"/>
<line fill="none" stroke="#4F4F4F" stroke-linecap="round" stroke-linejoin="round" stroke-miterlimit="10" x1="38.532" y1="20.934" x2="37.818" y2="21.648"/>
<line fill="none" stroke="#4F4F4F" stroke-linecap="round" stroke-linejoin="round" stroke-miterlimit="10" x1="34.054" y1="21.179" x2="33.339" y2="21.893"/>
<line fill="none" stroke="#4F4F4F" stroke-linecap="round" stroke-linejoin="round" stroke-miterlimit="10" x1="38.136" y1="23.327" x2="37.421" y2="24.041"/>
<line fill="none" stroke="#4F4F4F" stroke-linecap="round" stroke-linejoin="round" stroke-miterlimit="10" x1="32.013" y1="20.105" x2="31.299" y2="20.819"/>
<line fill="none" stroke="#4F4F4F" stroke-linecap="round" stroke-linejoin="round" stroke-miterlimit="10" x1="36.095" y1="22.252" x2="35.38" y2="22.967"/>
<line fill="none" stroke="#4F4F4F" stroke-linecap="round" stroke-linejoin="round" stroke-miterlimit="10" x1="34.337" y1="23.929" x2="33.622" y2="24.644"/>
<line fill="none" stroke="#4F4F4F" stroke-linecap="round" stroke-linejoin="round" stroke-miterlimit="10" x1="32.295" y1="22.855" x2="31.581" y2="23.569"/>
<line fill="none" stroke="#4F4F4F" stroke-linecap="round" stroke-linejoin="round" stroke-miterlimit="10" x1="36.378" y1="25.003" x2="35.663" y2="25.717"/>
<polyline fill="none" stroke="#4F4F4F" stroke-width="2" stroke-linecap="round" stroke-linejoin="round" stroke-miterlimit="10" points="
	40.46,14.112 49,10.084 49,34 "/>
</svg>
