<?xml version="1.0" encoding="utf-8"?>
<!-- Generator: Adobe Illustrator 16.0.0, SVG Export Plug-In . SVG Version: 6.00 Build 0)  -->
<!DOCTYPE svg PUBLIC "-//W3C//DTD SVG 1.1//EN" "http://www.w3.org/Graphics/SVG/1.1/DTD/svg11.dtd">
<svg version="1.1" id="Layer_1" xmlns="http://www.w3.org/2000/svg" xmlns:xlink="http://www.w3.org/1999/xlink" x="0px" y="0px"
	 width="129px" height="129px" viewBox="0 0 129 129" enable-background="new 0 0 129 129" xml:space="preserve">
<rect x="150.5" y="32.5" fill="none" stroke="#000000" stroke-width="3" stroke-miterlimit="10" width="39" height="53"/>
<rect x="193.298" y="43.018" transform="matrix(0.8607 0.5091 -0.5091 0.8607 49.5442 -93.0407)" fill="#FFFFFF" stroke="#000000" stroke-miterlimit="10" width="3.001" height="2"/>
<line fill="#FFFFFF" stroke="#000000" stroke-width="3" stroke-miterlimit="10" x1="155" y1="50.5" x2="185" y2="50.5"/>
<line fill="#FFFFFF" stroke="#000000" stroke-width="3" stroke-miterlimit="10" x1="155" y1="58.5" x2="185" y2="58.5"/>
<line fill="#FFFFFF" stroke="#000000" stroke-width="3" stroke-miterlimit="10" x1="155" y1="66.5" x2="185" y2="66.5"/>
<line fill="#FFFFFF" stroke="#000000" stroke-width="3" stroke-miterlimit="10" x1="155" y1="74.5" x2="185" y2="74.5"/>
<polyline fill="none" stroke="#000000" stroke-miterlimit="10" points="195.994,46.906 197.903,48.165 194.053,54.567 "/>
<path fill="#FFFFFF" stroke="#000000" stroke-width="2" stroke-miterlimit="10" d="M192.137,43.606l4.303,2.546l-11.438,19.321
	c0,0-3.236,2.451-4.065,1.961c-0.83-0.491-0.349-4.318-0.349-4.318L192.137,43.606z"/>
<line fill="#FFFFFF" stroke="#000000" stroke-width="4" stroke-miterlimit="10" x1="155" y1="40" x2="166" y2="40"/>
<polygon fill="#FFFFFF" stroke="#000000" stroke-width="3" stroke-linecap="round" stroke-linejoin="round" stroke-miterlimit="10" points="
	23.5,22.377 23.5,117.5 34.5,117.5 34.5,22.377 29,16 "/>
<polyline fill="#FFFFFF" stroke="#000000" stroke-width="3" stroke-linecap="round" stroke-linejoin="round" stroke-miterlimit="10" points="
	34,32.5 10.5,32.5 10.5,43.5 101.644,43.5 107.75,38 101.644,32.5 34,32.5 "/>
<rect x="25" y="31" fill="#FFFFFF" width="8" height="18"/>
<line fill="#FFFFFF" stroke="#000000" stroke-width="3" stroke-miterlimit="10" x1="86.5" y1="43" x2="86.5" y2="59"/>
<line fill="#FFFFFF" stroke="#000000" stroke-width="3" stroke-miterlimit="10" x1="53.5" y1="43" x2="53.5" y2="59"/>
<rect x="46.5" y="57.5" fill="#FFFFFF" stroke="#000000" stroke-width="3" stroke-miterlimit="10" width="48" height="42"/>
<g>
	<polyline fill="none" stroke="#000000" stroke-width="3" stroke-miterlimit="10" points="81.478,72.564 81.478,65.584
		77.549,65.584 77.549,69.229 	"/>
	<polygon fill="none" stroke="#000000" stroke-width="3" stroke-miterlimit="10" points="83.334,74.383 83.334,93.527
		57.666,93.527 57.666,74.375 70.642,63.471 	"/>
	<polyline fill="none" stroke="#000000" stroke-width="3" stroke-miterlimit="10" points="67.343,93.529 67.343,82.287
		73.773,82.287 73.773,93.529 	"/>
</g>
</svg>
